<svg xmlns="http://www.w3.org/2000/svg" xml:space="preserve" width="98" height="98" style="enable-background:new 0 0 300.005 300.005" viewBox="0 0 300.005 300.005"><path fill="#3CF" d="M150 0C67.159 0 .002 67.159.002 150c0 82.838 67.157 150.005 149.997 150.005S300.003 232.841 300.003 150C300 67.159 232.841 0 150 0m85.661 168.822c-6.756 42.93-43.939 73.662-86.101 73.662-4.487 0-9.028-.35-13.598-1.066-47.497-7.485-80.063-52.215-72.593-99.707C66.99 118.7 79.354 98.475 98.183 84.765c16.21-11.801 35.538-17.543 55.286-16.607l-14.527-13.834 9.521-9.991 22.29 21.239.005-.003 9.97 9.513-9.513 9.991-.005-.008-21.237 22.295-9.98-9.521 13.456-14.112c-16.457-.934-32.605 3.789-46.107 13.619-15.471 11.264-25.628 27.879-28.603 46.784-6.134 39.019 20.622 75.768 59.643 81.915 39.019 6.131 75.765-20.617 81.904-59.641 4.054-25.76-6.225-51.72-26.834-67.751l9.56-12.281c25.071 19.505 37.583 51.098 32.649 82.45m-114.565 6.621-.511-1.196 12.823-5.436.506 1.198c2.039 4.84 9.088 8.489 16.394 8.489 3.284 0 13.995-.599 13.995-8.339 0-4.054-4.58-6.481-14.415-7.641-11.036-1.237-26.162-2.928-26.162-19.587 0-10.214 7.641-17.354 20.508-19.255v-7.851h13.821v7.885c5.973 1.05 13.855 3.652 18.251 12.644l.584 1.19-11.804 5.46-.597-.993c-2.067-3.413-8.147-6.092-13.834-6.092-3.836 0-12.755.685-12.755 7.011 0 4.547 5.747 5.594 13.264 6.494 11.752 1.447 27.84 3.429 27.84 20.733 0 12.735-10.328 19.439-20.946 20.627v8.953H144.24v-8.523c-11.15-1.311-19.347-6.885-23.144-15.771"/></svg>