<svg xmlns="http://www.w3.org/2000/svg" width="560" height="560" fill="none" viewBox="0 0 560 560"><g clip-path="url(#a)"><path fill="#E84142" d="M280 560c154.64 0 280-125.36 280-280S434.64 0 280 0 0 125.36 0 280s125.36 280 280 280"/><path fill="#fff" d="M378.772 287.276c9.7-16.756 25.354-16.756 35.055 0l60.409 106.047c9.701 16.756 1.764 30.425-17.638 30.425h-121.7c-19.182 0-27.119-13.669-17.638-30.425zM261.921 83.118c9.701-16.756 25.134-16.756 34.835 0l13.449 24.252 31.748 55.78c7.716 15.874 7.716 34.614 0 50.488L235.465 398.173c-9.701 14.992-25.796 24.473-43.654 25.575h-88.409c-19.402 0-27.339-13.449-17.638-30.425z"/></g><defs><clipPath id="a"><path fill="#fff" d="M0 0h560v560H0z"/></clipPath></defs></svg>