<svg xmlns="http://www.w3.org/2000/svg" width="120" height="120"><circle cx="60" cy="60" r="60" style="opacity:1;fill:#fff;fill-opacity:1;stroke:none;stroke-width:4.80000019;stroke-miterlimit:4;stroke-dasharray:none;stroke-opacity:1"/><path d="m127.961 0-2.795 9.5v275.668l2.795 2.79 127.962-75.638z" style="fill:#343434" transform="translate(27.032 6.496)scale(.26147)"/><path d="m0 212.32 127.962 75.639V0z" style="fill:#8c8c8c" transform="translate(27.032 6.496)scale(.26147)"/><path d="m127.961 312.187-1.575 1.92v98.199l1.575 4.601 128.038-180.32z" style="fill:#3c3c3b" transform="translate(27.032 6.496)scale(.26147)"/><path d="M127.962 312.185 0 236.585l127.962 180.32z" style="fill:#8c8c8c" transform="translate(27.032 6.496)scale(.26147)"/><path d="m255.921 212.321-127.96-58.162v133.799z" style="fill:#141414" transform="translate(27.032 6.496)scale(.26147)"/><path d="M127.961 287.958V154.159L.001 212.321z" style="fill:#393939" transform="translate(27.032 6.496)scale(.26147)"/></svg>