<svg width="560" height="560" viewBox="0 0 560 560" fill="none" xmlns="http://www.w3.org/2000/svg">
<g clip-path="url(#clip0_401_6)">
<path d="M280 560C434.64 560 560 434.64 560 280C560 125.36 434.64 0 280 0C125.36 0 0 125.36 0 280C0 434.64 125.36 560 280 560Z" fill="#E84142"/>
<path d="M378.772 287.276C388.472 270.52 404.126 270.52 413.827 287.276L474.236 393.323C483.937 410.079 476 423.748 456.598 423.748H334.898C315.716 423.748 307.779 410.079 317.26 393.323L378.772 287.276ZM261.921 83.1181C271.622 66.3622 287.055 66.3622 296.756 83.1181L310.205 107.37L341.953 163.15C349.669 179.024 349.669 197.764 341.953 213.638L235.465 398.173C225.764 413.165 209.669 422.646 191.811 423.748H103.402C84 423.748 76.063 410.299 85.7638 393.323L261.921 83.1181Z" fill="white"/>
</g>
<defs>
<clipPath id="clip0_401_6">
<rect width="560" height="560" fill="white"/>
</clipPath>
</defs>
</svg>
