<svg xmlns="http://www.w3.org/2000/svg" viewBox="0 0 9 9"><defs><linearGradient id="f1473ccd-b079-40c0-8436-113573b98cba" x1="2.238" y1="-201.238" x2="6.761" y2="-205.762" gradientTransform="translate(0 208)" gradientUnits="userSpaceOnUse"><stop offset="0" stop-color="#cb4ee8"/><stop offset="1" stop-color="#10f4b1"/></linearGradient></defs><circle cx="4.5" cy="4.5" r="4.5" fill="#242829"/><path d="M2.138 3.985h4.079a.188.188 0 01.135.056l.645.65a.19.19 0 01-.135.325H2.784a.188.188 0 01-.135-.057l-.645-.65a.19.19 0 01.134-.324zm-.134-.861l.645-.65a.19.19 0 01.135-.057H6.86a.19.19 0 01.135.325l-.644.65a.19.19 0 01-.135.056H2.138a.19.19 0 01-.134-.324zm4.992 2.752l-.645.65a.19.19 0 01-.135.057H2.138a.19.19 0 01-.134-.325l.645-.65a.19.19 0 01.135-.056H6.86a.19.19 0 01.135.324z" fill-rule="evenodd" fill="url(#f1473ccd-b079-40c0-8436-113573b98cba)"/></svg>
