<svg xmlns="http://www.w3.org/2000/svg" width="304.75" height="128" class="icon" viewBox="0 0 2438 1024"><path fill="#F0B90B" d="M892.67 489.59H778.159V248.88h111.798c49.316 0 79.448 24.41 79.448 62.236v.592c0 27.173-14.45 42.313-31.66 51.93 27.863 10.651 45.074 26.827 45.074 59.178v.69c-.05 44.089-35.803 66.084-90.15 66.084m24.066-169.548c0-15.83-12.378-24.658-34.521-24.658H829.94v50.845h48.823c23.375 0 38.17-7.546 38.17-25.447zm13.414 96.314c0-16.176-12.033-26.138-39.453-26.138h-60.954v52.966h62.927c23.375 0 37.48-8.286 37.48-26.138zm110.714 73.234V248.88h52.965v240.71zm292.59 0-116.582-153.224v152.878h-52.275V248.88h48.822l112.786 148.193V249.126h52.274v240.71zm283.023 0-21.995-54.001h-101.788l-22.044 54H1416.7l103.168-242.436h48.823L1671.86 489.59zm-72.889-178.82-32.006 78.068h64.11zm335.643 178.82-116.385-153.224v152.878h-52.275V248.88h48.823l112.834 148.193V249.126h52.275v240.71zm219.751 4.142a121.514 121.514 0 0 1-123.29-123.832v-.69c0-68.401 51.585-124.473 125.51-124.473 45.37 0 72.543 15.14 94.932 37.135l-33.83 38.86c-18.543-16.865-37.48-27.172-61.546-27.172-40.587 0-69.782 33.732-69.782 74.96v.69c0 41.277 28.504 75.65 69.782 75.65 27.518 0 44.384-10.997 63.272-28.159l33.732 34.028c-24.855 26.482-52.324 43.003-98.78 43.003m141.388-4.142V248.88h181.532v47.096H2292.94v48.823h113.426v47.145H2292.94v50.55h130.736v47.096zM1689.81 733.06c-49.661 0-86.648-38.712-86.648-87.88s36.395-88.374 87.88-88.374a88.768 88.768 0 0 1 66.873 26.532l-19.234 22.143c-13.61-12.674-28.208-21.157-47.688-21.157-32.647 0-56.27 26.779-56.27 60.363s23.623 60.855 56.27 60.855c20.91 0 34.521-8.531 48.921-22.142l19.233 19.48c-18 18.493-37.43 30.18-69.338 30.18m138.084-74.762v71.804h-29.935V559.717h29.935v70.866h81.321v-70.866h29.935v170.386h-29.935v-71.804zm325.483 71.804h-31.66l-17.26-41.13h-80.632l-17.556 41.13h-30.675l75.01-171.817h27.863zm-89.409-135.816-29.195 68.154h58.489zm156.725-34.521v170.386h-29.934V559.717zm173.592 0h29.59v170.386h-25.102l-93.7-121.218v121.218h-29.59V559.717h27.716l90.889 117.815zm-871.31 71.212H778.306v28.356h744.667zM86.11 419.413 16.033 489.59l70.078 70.176 70.176-70.176zm240.611-100.259 120.33 120.282 70.177-70.177-120.33-120.28-70.029-70.424-70.176 70.423-120.33 120.281 70.176 70.177zm240.612 100.26-70.176 70.176 70.176 70.176 70.225-70.176zm-240.612 240.61-120.33-120.28-70.028 70.176 120.33 120.281 70.176 70.226 70.177-70.226 120.33-120.28-70.176-70.177zm0-100.258L396.9 489.59l-70.177-70.177-70.028 70.177z"/></svg>