<svg xmlns="http://www.w3.org/2000/svg" width="512" height="512" viewBox="0 0 512 512"><path fill="#fcd232" d="M256 512c-68.38 0-132.667-26.629-181.02-74.98C26.629 388.667 0 324.38 0 256S26.629 123.333 74.98 74.98C123.333 26.629 187.62 0 256 0s132.667 26.629 181.02 74.98C485.371 123.333 512 187.62 512 256s-26.629 132.667-74.98 181.02C388.667 485.371 324.38 512 256 512"/><path fill="#f7b90f" d="M256 0v512c68.38 0 132.667-26.629 181.02-74.98C485.371 388.667 512 324.38 512 256s-26.629-132.667-74.98-181.02C388.667 26.629 324.38 0 256 0"/><path fill="#ffee78" d="M256 452c-108.075 0-196-87.925-196-196S147.925 60 256 60s196 87.925 196 196-87.925 196-196 196"/><path fill="#fcd232" d="M452 256c0-108.075-87.925-196-196-196v392c108.075 0 196-87.925 196-196"/><path fill="#fcd232" d="M332.577 251.655C342.452 240.956 348.5 226.673 348.5 211c0-33.084-26.916-60-60-60v-15c0-8.284-6.716-15-15-15s-15 6.716-15 15v15h-30v-15c0-8.284-6.716-15-15-15s-15 6.716-15 15v15h-10c-8.284 0-15 6.716-15 15s6.716 15 15 15h10v150h-10c-8.284 0-15 6.716-15 15s6.716 15 15 15h10v15c0 8.284 6.716 15 15 15s15-6.716 15-15v-15h30v15c0 8.284 6.716 15 15 15s15-6.716 15-15v-15h10c33.084 0 60-26.916 60-60 0-20.434-10.276-38.506-25.923-49.345M318.5 211c0 16.542-13.458 30-30 30h-60v-60h60c16.542 0 30 13.458 30 30m-20 120h-70v-60h70c16.542 0 30 13.458 30 30s-13.458 30-30 30"/><path fill="#f7b90f" d="M332.577 251.655C342.452 240.956 348.5 226.673 348.5 211c0-33.084-26.916-60-60-60v-15c0-8.284-6.716-15-15-15s-15 6.716-15 15v15H256v30h32.5c16.542 0 30 13.458 30 30s-13.458 30-30 30H256v30h42.5c16.542 0 30 13.458 30 30s-13.458 30-30 30H256v30h2.5v15c0 8.284 6.716 15 15 15s15-6.716 15-15v-15h10c33.084 0 60-26.916 60-60 0-20.434-10.276-38.506-25.923-49.345"/></svg>