<svg xmlns="http://www.w3.org/2000/svg" xml:space="preserve" style="enable-background:new 0 0 480 480" viewBox="0 0 480 480"><linearGradient id="a" x1="-52.1" x2="-33.683" y1="551.4" y2="569.817" gradientTransform="matrix(8 0 0 -8 567 4941)" gradientUnits="userSpaceOnUse"><stop offset="0" style="stop-color:#ff5f6d"/><stop offset="1" style="stop-color:#ffc371"/></linearGradient><path d="M344 480c4.8 0 8-3.2 8-8v-32c0-4.8-3.2-8-8-8H104c-4.8 0-8 3.2-8 8v32c0 4.8 3.2 8 8 8zm-136-32h32v16h-32zm-16 16h-32v-16h32zm64-16h32v16h-32zm80 16h-32v-16h32zm-224-16h32v16h-32z" style="fill:url(#a)"/><linearGradient id="b" x1="-50.1" x2="-31.683" y1="558.4" y2="576.817" gradientTransform="matrix(8 0 0 -8 567 4941)" gradientUnits="userSpaceOnUse"><stop offset="0" style="stop-color:#ff5f6d"/><stop offset="1" style="stop-color:#ffc371"/></linearGradient><path d="M368 416v-32c0-4.8-3.2-8-8-8H120c-4.8 0-8 3.2-8 8v32c0 4.8 3.2 8 8 8h240c4.8 0 8-3.2 8-8m-144-24h32v16h-32zm-16 16h-32v-16h32zm64-16h32v16h-32zm-144 0h32v16h-32zm224 16h-32v-16h32z" style="fill:url(#b)"/><linearGradient id="c" x1="-53.1" x2="-34.683" y1="565.4" y2="583.817" gradientTransform="matrix(8 0 0 -8 567 4941)" gradientUnits="userSpaceOnUse"><stop offset="0" style="stop-color:#ff5f6d"/><stop offset="1" style="stop-color:#ffc371"/></linearGradient><path d="M336 368c4.8 0 8-3.2 8-8v-32c0-4.8-3.2-8-8-8H96c-4.8 0-8 3.2-8 8v32c0 4.8 3.2 8 8 8zm-104-16h-32v-16h32zm16-16h32v16h-32zm-64 16h-32v-16h32zm144 0h-32v-16h32zm-224-16h32v16h-32z" style="fill:url(#c)"/><linearGradient id="d" x1="-47.1" x2="-28.683" y1="572.4" y2="590.817" gradientTransform="matrix(8 0 0 -8 567 4941)" gradientUnits="userSpaceOnUse"><stop offset="0" style="stop-color:#ff5f6d"/><stop offset="1" style="stop-color:#ffc371"/></linearGradient><path d="M392 304v-32c0-4.8-3.2-8-8-8H144c-4.8 0-8 3.2-8 8v32c0 4.8 3.2 8 8 8h240c4.8 0 8-3.2 8-8m-144-24h32v16h-32zm-16 16h-32v-16h32zm64-16h32v16h-32zm-144 0h32v16h-32zm224 16h-32v-16h32z" style="fill:url(#d)"/><linearGradient id="e" x1="-54.176" x2="-31.573" y1="590.327" y2="612.923" gradientTransform="matrix(8 0 0 -8 567 4941)" gradientUnits="userSpaceOnUse"><stop offset="0" style="stop-color:#ff5f6d"/><stop offset="1" style="stop-color:#ffc371"/></linearGradient><path d="M224 0C153.6 0 96 57.6 96 128s57.6 128 128 128 128-57.6 128-128S294.4 0 224 0m0 240c-61.6 0-112-50.4-112-112S162.4 16 224 16s112 50.4 112 112-50.4 112-112 112" style="fill:url(#e)"/><linearGradient id="f" x1="-48.827" x2="-36.914" y1="595.157" y2="607.071" gradientTransform="matrix(8 0 0 -8 567 4941)" gradientUnits="userSpaceOnUse"><stop offset="0" style="stop-color:#ff5f6d"/><stop offset="1" style="stop-color:#ffc371"/></linearGradient><path d="M256 120h-24V84.8l23.2 3.2c4 .8 8.8-2.4 8.8-6.4s-2.4-8.8-6.4-8.8l-25.6-4V56c0-4.8-3.2-8-8-8s-8 3.2-8 8v11.2L192.8 64c-4-.8-8 2.4-8.8 7.2l-8 56c-.8 4 2.4 8.8 6.4 8.8h32.8v35.2l-30.4-3.2c-4-.8-8 2.4-8.8 7.2-.8 4 2.4 8 7.2 8.8l32.8 3.2V200c0 4.8 3.2 8 8 8s8-3.2 8-8v-11.2l31.2 3.2h.8c4.8 0 8-3.2 8-8v-.8l-8-56c-.8-4-4-7.2-8-7.2m-62.4 0 5.6-39.2 16.8 2.4V120zm38.4 52.8V136h16.8l5.6 39.2z" style="fill:url(#f)"/></svg>