<svg xmlns="http://www.w3.org/2000/svg" width="19" height="18" fill="none" viewBox="0 0 19 18"><path fill="#50E3C2" stroke="#50E3C2" stroke-width=".3" d="M15.712 13.008v2.224H3.298v-2.224a.62.62 0 0 0-1.24 0v2.844c0 .29.2.535.47.602v.018h13.804a.62.62 0 0 0 .62-.62v-2.844a.62.62 0 0 0-1.24 0Z"/><path fill="#50E3C2" stroke="#50E3C2" stroke-width=".3" d="M8.87 3.678v9.899a.62.62 0 0 0 1.24 0V3.65l3.609 3.606a.617.617 0 0 0 .876.003.616.616 0 0 0 .002-.877l-4.606-4.61a.622.622 0 0 0-.441-.183h-.003l-.022-.011H9.49c-.087 0-.17.02-.253.056a.611.611 0 0 0-.212.137l-4.61 4.607a.616.616 0 0 0-.183.438h.15M8.87 3.678l.424-1.905a.462.462 0 0 0-.163.104L4.52 6.484a.466.466 0 0 0-.139.332m4.488-3.138L5.29 7.256a.62.62 0 0 1-.876-.001M8.87 3.678 5.184 7.15a.47.47 0 0 1-.665-.001m-.138-.333c0 .126.049.244.138.333m-.138-.333h-.15c0 .166.064.322.182.439m.106-.106-.107.106m.107-.106-.106.106"/></svg>