<svg xmlns="http://www.w3.org/2000/svg" width="31" height="30" fill="none" viewBox="0 0 31 30"><path fill="#50E3C2" fill-rule="evenodd" d="M23 10.625h-1.25v-2.5c0-3.45-2.8-6.25-6.25-6.25a6.245 6.245 0 0 0-6.05 4.688c-.175.675.225 1.35.9 1.525a1.25 1.25 0 0 0 1.525-.9A3.745 3.745 0 0 1 15.5 4.374a3.761 3.761 0 0 1 3.75 3.75v2.5H8a2.507 2.507 0 0 0-2.5 2.5v12.5c0 1.375 1.125 2.5 2.5 2.5h15c1.375 0 2.5-1.125 2.5-2.5v-12.5c0-1.375-1.125-2.5-2.5-2.5m-7.5 6.25a2.507 2.507 0 0 0-2.5 2.5c0 1.375 1.125 2.5 2.5 2.5s2.5-1.125 2.5-2.5-1.125-2.5-2.5-2.5m6.25 8.75c.688 0 1.25-.562 1.25-1.25v-10c0-.687-.562-1.25-1.25-1.25H9.25c-.687 0-1.25.563-1.25 1.25v10c0 .688.563 1.25 1.25 1.25z" clip-rule="evenodd"/></svg>