<svg xmlns="http://www.w3.org/2000/svg" width="31" height="30" fill="none" viewBox="0 0 31 30"><circle cx="15.5" cy="15" r="15" fill="#F3BA2F"/><g fill="#fff" clip-path="url(#a)"><path d="M20.006 13.15h-.38v-1.523a4.127 4.127 0 0 0-8.253 0v1.522h-.38a1.867 1.867 0 0 0-1.864 1.866v5.619a1.866 1.866 0 0 0 1.865 1.864h9.012a1.866 1.866 0 0 0 1.865-1.864v-5.62a1.867 1.867 0 0 0-1.865-1.865m-7.328-1.523a2.822 2.822 0 1 1 5.643 0v1.522h-5.643zm7.887 9.009a.56.56 0 0 1-.559.559h-9.012a.559.559 0 0 1-.56-.56v-5.618a.56.56 0 0 1 .56-.56h9.012a.56.56 0 0 1 .56.56z"/><path d="M15.5 16.683a.56.56 0 0 0-.56.56v1.165a.56.56 0 0 0 1.12 0v-1.166a.56.56 0 0 0-.56-.559"/></g><defs><clipPath id="a"><path fill="#fff" d="M8 7.5h15v15H8z"/></clipPath></defs></svg>