<svg xmlns="http://www.w3.org/2000/svg" width="22" height="22" fill="none" viewBox="0 0 22 22"><path fill="#616B75" fill-rule="evenodd" d="M11.005.05h.01c.55 0 .99.44.99.99v.97c0 .55-.44.99-1 .98h-.01c-.55 0-.99-.44-.99-.99v-.96c0-.55.44-.99 1-.99m-5.95 3.59-.39-.39a.993.993 0 0 0-1.4 0l-.01.01a.984.984 0 0 0 0 1.4l.39.39c.39.39 1.01.39 1.4 0l.01-.01a.984.984 0 0 0 0-1.4M2.015 10H.995c-.55 0-.99.44-.99.99V11c0 .55.44.99.99.99h1.01c.56.01 1-.43 1-.98V11c0-.56-.44-1-.99-1m16.74-6.74c-.39-.39-1.02-.39-1.41-.01l-.39.39a.984.984 0 0 0 0 1.4l.01.01c.39.39 1.02.39 1.4 0l.39-.39a.984.984 0 0 0 0-1.4m-1.42 15.49-.39-.39a.987.987 0 0 1 .01-1.41.993.993 0 0 1 1.4 0l.39.39a.996.996 0 1 1-1.41 1.41m1.67-7.76V11c0 .55.44.99.99.99h1.01c.55 0 .99-.44.99-.99v-.01c0-.55-.44-.99-.99-.99h-1.01c-.55 0-.99.44-.99.99m-14 .01c0-3.31 2.69-6 6-6s6 2.69 6 6-2.69 6-6 6-6-2.69-6-6m5.99 10.95h.01c.55 0 .99-.44.99-.99V20c0-.55-.44-.99-.99-.99h-.01c-.55 0-.99.44-.99.99v.96c0 .55.44.99.99.99m-6.33-3.21a.996.996 0 0 1-1.41 0c-.39-.39-.39-1.01-.01-1.41l.39-.39a.996.996 0 0 1 1.41 0l.01.01c.38.38.39 1.01 0 1.4z" clip-rule="evenodd"/></svg>