<svg xmlns="http://www.w3.org/2000/svg" width="25" height="24" fill="none" viewBox="0 0 25 24"><path fill="#616B75" d="M19.226 14.641c-.843 1.363-3.535 2.361-6.726 2.361s-5.883-.998-6.727-2.361c-.178-.29-.273-.135-.273.007v2.002c0 1.94 3.134 3.95 7 3.95s7-2.01 7-3.949v-2.002c0-.143-.096-.298-.274-.008m.011-5.116c-.83 1.205-3.532 2.09-6.737 2.09s-5.908-.885-6.738-2.09c-.171-.248-.262-.113-.262-.002v2.357c0 1.762 3.134 3.189 7 3.189s7-1.428 7-3.189V9.523c0-.111-.092-.246-.263.002M12.5 3c-3.866 0-7 1.18-7 2.633v1.26c0 1.541 3.134 2.791 7 2.791s7-1.25 7-2.791v-1.26C19.5 4.18 16.366 3 12.5 3"/></svg>