<svg xmlns="http://www.w3.org/2000/svg" width="30" height="30" fill="none" viewBox="0 0 30 30"><path fill="#50E3C2" fill-rule="evenodd" d="M24.378 15c0 .425-.038.825-.088 1.225l2.638 2.063a.63.63 0 0 1 .15.8l-2.5 4.325a.61.61 0 0 1-.763.274l-3.112-1.25a9.6 9.6 0 0 1-2.113 1.226l-.475 3.312a.61.61 0 0 1-.612.525h-5a.61.61 0 0 1-.613-.525l-.475-3.312a9.133 9.133 0 0 1-2.112-1.226l-3.113 1.25c-.275.1-.612 0-.762-.274l-2.5-4.326a.63.63 0 0 1 .15-.8l2.637-2.062A9.92 9.92 0 0 1 5.628 15c0-.412.037-.825.087-1.225l-2.637-2.062a.616.616 0 0 1-.15-.8l2.5-4.325a.61.61 0 0 1 .762-.276l3.113 1.25a9.604 9.604 0 0 1 2.112-1.224l.475-3.313a.61.61 0 0 1 .613-.525h5a.61.61 0 0 1 .612.525l.475 3.313a9.133 9.133 0 0 1 2.113 1.225l3.112-1.25c.275-.1.613 0 .763.275l2.5 4.325a.63.63 0 0 1-.15.8l-2.638 2.062c.05.4.088.8.088 1.225m-13.75 0a4.38 4.38 0 0 0 4.375 4.375A4.38 4.38 0 0 0 19.378 15a4.38 4.38 0 0 0-4.375-4.375A4.38 4.38 0 0 0 10.628 15" clip-rule="evenodd"/></svg>