<svg xmlns="http://www.w3.org/2000/svg" width="63" height="36" viewBox="0 0 63 36"><defs><linearGradient id="a" x1="34.405%" x2="65.595%" y1="100%" y2="9.092%"><stop offset="0%" stop-color="#3F9"/><stop offset="100%" stop-color="#0CF"/></linearGradient></defs><path fill="url(#a)" fill-rule="evenodd" d="m15.7 4.385 15.769-15.354L47.3 4.446a5 5 0 0 1 .011 7.154l-3.502 3.431L31.47 3.181 19.374 15.03l-3.625-3.433a5 5 0 0 1-.05-7.213m0 31.292a5 5 0 0 1 .049-7.212l3.625-3.434 12.095 11.852L43.81 25.03l3.502 3.432a5 5 0 0 1-.011 7.153L31.469 51.031zm16.269-7.646a8 8 0 1 1 0-16 8 8 0 0 1 0 16" transform="rotate(90 32.5 19.031)"/></svg>