<svg xmlns="http://www.w3.org/2000/svg" width="616" height="331" viewBox="0 0 616 331"><defs><linearGradient id="a" x1="35.581%" x2="64.419%" y1="100%" y2="9.092%"><stop offset="0%" stop-color="#3F9" stop-opacity=".204"/><stop offset="100%" stop-color="#0CF" stop-opacity=".257"/></linearGradient></defs><path fill="url(#a)" fill-rule="evenodd" d="m162.31-1.471 145.281-141.13L453.69-.678c25.75 25.014 26.346 66.165 1.332 91.914a65 65 0 0 1-1.184 1.188l-23.499 22.973-122.747-117.6-120.292 117.6-24.342-23.004C136.866 67.737 135.703 26.597 160.36.506a65 65 0 0 1 1.95-1.977m7.487 341.01a75 75 0 0 1-2.25-2.281c-28.451-30.105-27.11-77.574 2.995-106.024l16.757-15.836 120.292 117.6 122.747-117.6 23.499 22.973c.4.391.795.787 1.184 1.188 25.014 25.75 24.417 66.9-1.332 91.914L307.591 473.398zM312.09 245.4c-43.893 0-79.476-35.594-79.476-79.5 0-43.908 35.583-79.5 79.476-79.5s79.475 35.592 79.475 79.5c0 43.906-35.582 79.5-79.475 79.5" transform="rotate(90 308 165.398)"/></svg>