<svg xmlns="http://www.w3.org/2000/svg" width="139" height="30" viewBox="0 0 139 30"><defs><linearGradient id="a" x1="0%" x2="100%" y1="50%" y2="50%"><stop offset="0%" stop-color="#0CF"/><stop offset="100%" stop-color="#3F9"/></linearGradient></defs><g fill="none"><path fill="url(#a)" d="m0 30 20.767-8.82-6.57-6.722zM7.627 7.745l6.57 6.713L25.933 0z"/><path fill="#101921" d="M36.407 11.02h-3.213V9.31h8.299v1.714H38.29v9.666h-1.883zm9.235-1.71h1.829v4.92h4.625V9.31h1.844v11.38h-1.844v-4.75h-4.625v4.75h-1.83zM61.12 20.257c-.66-.29-1.156-.838-1.491-1.646-.335-.808-.502-1.997-.502-3.568 0-1.565.17-2.762.51-3.59.339-.829.839-1.394 1.498-1.695.66-.298 1.543-.447 2.652-.448 1.109 0 2 .149 2.675.448.664.298 1.163.859 1.499 1.682.335.822.502 2.022.502 3.598 0 1.566-.17 2.755-.51 3.568-.341.813-.838 1.363-1.491 1.651-.654.288-1.545.432-2.675.433-1.13 0-2.019-.144-2.667-.433m4.322-1.553c.382-.202.657-.583.824-1.144.167-.56.251-1.401.251-2.525 0-1.161-.086-2.03-.26-2.606-.172-.575-.447-.96-.823-1.152-.376-.19-.925-.286-1.647-.287-.7 0-1.24.098-1.616.295-.377.197-.654.58-.832 1.151-.178.57-.267 1.437-.267 2.6 0 1.13.081 1.972.243 2.524.162.553.433.934.814 1.144.377.202.93.303 1.663.303.718 0 1.268-.101 1.65-.303m7.17-9.394h4.778c.999 0 1.79.255 2.374.764.584.51.876 1.432.876 2.766 0 1.008-.184 1.743-.55 2.205a2.974 2.974 0 0 1-1.441.988l2.261 4.657h-1.99l-2.04-4.38c-.647 0-1.417-.01-2.309-.031v4.41h-1.96zm4.444 5.476c.51 0 .905-.142 1.186-.424.281-.282.423-.789.425-1.519 0-.699-.142-1.179-.425-1.44-.283-.26-.679-.388-1.186-.385H74.57v3.762zm9.7 5.457c-.55-.298-.971-.861-1.262-1.69-.29-.828-.435-2.025-.434-3.59 0-1.486.147-2.64.442-3.463.295-.822.728-1.393 1.299-1.712.569-.318 1.307-.478 2.213-.478.595 0 1.19.05 1.777.145a11.45 11.45 0 0 1 1.528.34v1.443c-.295-.06-.716-.115-1.262-.166a18.156 18.156 0 0 0-1.672-.076c-.65 0-1.149.104-1.498.31-.35.207-.603.594-.76 1.16-.157.566-.236 1.408-.236 2.525 0 1.118.074 1.962.222 2.53.147.568.393.957.737 1.168.345.21.851.316 1.52.318a22.76 22.76 0 0 0 2.95-.167v1.44c-.894.269-2.01.406-3.348.41-.926 0-1.665-.149-2.216-.447M96.47 9.31h1.83v4.92h4.625V9.31h1.844v11.38h-1.844v-4.75h-4.626v4.75H96.47zm17.002 0h2.292l3.527 11.38h-1.896l-.837-2.702h-3.919l-.822 2.699h-1.862zm2.645 6.97-1.528-5.334-1.528 5.334zm7.323-6.97h2.075v11.38h-2.075zm7.261 0h1.47l4.988 8.126V9.31H139v11.38h-1.47l-4.988-8.121v8.12h-1.84z"/></g></svg>