<svg xmlns="http://www.w3.org/2000/svg" width="250" height="35" viewBox="0 0 250 35"><defs><linearGradient id="a" x1="30.216%" x2="69.784%" y1="100%" y2="9.092%"><stop offset="0%" stop-color="#3F9"/><stop offset="100%" stop-color="#0CF"/></linearGradient></defs><g fill="none" fill-rule="evenodd"><path fill="#0CF" fill-rule="nonzero" d="M119.77 30.982 100.037 31V4h19.547v5.29h-13.883v5.476h12.216v5.29h-12.216v5.634h14.067v5.29zm-24.924-7.384c0 4.954-3.993 7.421-10.064 7.402H72V4h12.476c5.491 0 8.872 2.737 8.872 6.98v.077c0 3.05-1.618 4.747-3.533 5.825 3.116 1.198 5.031 3.011 5.031 6.638zm38.219-4.091v11.448l-6.027.045V4h12.071c4.66 0 8.699 3.537 8.699 8.22 0 4.685-4.067 7.287-8.643 7.287zm-45.488-7.73v-.044c0-1.622-1.332-2.54-3.733-2.54h-5.613v5.192h5.246c2.51 0 4.1-.774 4.1-2.608m2.077 10.938v-.05c0-1.911-1.37-3.088-4.462-3.088h-6.961v6.23h7.154c2.663 0 4.267-.978 4.267-3.092zm52.961-10.938v-.044c0-1.622-1.331-2.54-3.732-2.54h-5.614v5.192h5.247c2.51 0 4.1-.774 4.1-2.608"/><path fill="#50E3C2" fill-rule="nonzero" d="M154.195 21.655c.08 1.506.415 2.73 1.007 3.67 1.127 1.759 3.114 2.638 5.96 2.638 1.276 0 2.437-.193 3.485-.578 2.026-.747 3.04-2.085 3.04-4.013 0-1.446-.427-2.477-1.281-3.091-.865-.603-2.22-1.127-4.065-1.573l-3.398-.813c-2.22-.53-3.792-1.115-4.714-1.754-1.594-1.108-2.391-2.765-2.391-4.97 0-2.387.78-4.345 2.34-5.875 1.56-1.53 3.768-2.296 6.626-2.296 2.63 0 4.865.672 6.703 2.015 1.84 1.344 2.759 3.492 2.759 6.445h-3.194c-.17-1.422-.535-2.513-1.093-3.272-1.036-1.386-2.795-2.079-5.277-2.079-2.004 0-3.445.446-4.321 1.338-.877.892-1.315 1.928-1.315 3.109 0 1.301.512 2.253 1.537 2.856.672.386 2.191.868 4.56 1.446l3.518.85c1.696.41 3.006.97 3.928 1.68 1.594 1.242 2.391 3.043 2.391 5.405 0 2.94-1.01 5.044-3.031 6.309-2.021 1.265-4.37 1.898-7.045 1.898-3.12 0-5.562-.844-7.327-2.53-1.765-1.676-2.63-3.947-2.596-6.815zM176.7 4l4.745 21.964L187.133 4h3.7l5.687 21.964L201.266 4H205l-6.612 27h-3.58L189 8.613 183.158 31h-3.58L173 4zM220 20l-3.878-12L212 20zm-5.298-16h3.947L228 31h-3.825l-2.614-8.087h-10.193L208.578 31H205zM231 4h11.448c2.264 0 4.088.677 5.474 2.031C249.307 7.385 250 9.287 250 11.738c0 2.107-.618 3.942-1.853 5.505-1.236 1.562-3.135 2.343-5.699 2.343h-8.001V31H231zm16 7.438c0-1.91-.689-3.206-2.066-3.89-.758-.365-1.796-.548-3.116-.548H235v9h6.818c1.538 0 2.786-.336 3.744-1.008.959-.672 1.438-1.856 1.438-3.554"/><path fill="url(#a)" d="M15.73 4.354 31.5-11 47.332 4.415a5 5 0 0 1 .012 7.154L43.842 15 31.5 3.149 19.405 15l-3.625-3.434a5 5 0 0 1-.05-7.212m0 31.292a5 5 0 0 1 .05-7.212L19.405 25 31.5 36.851 43.842 25l3.502 3.431a5 5 0 0 1-.012 7.154L31.5 51zM32 28a8 8 0 1 1 0-16 8 8 0 0 1 0 16" transform="rotate(90 32.5 18.5)"/></g></svg>