<svg xmlns="http://www.w3.org/2000/svg" width="196" height="55" fill="none" viewBox="0 0 196 55"><path fill="#303942" fill-rule="evenodd" d="m24.544 27.328 7.846-.029-3.898-6.808 3.15-5.457 10.16 17.737-20.44.07z" clip-rule="evenodd"/><path fill="#303942" fill-rule="evenodd" d="m24.06 26.692-3.898 6.809 7.846.028 3.15 5.457-20.44-.07 10.16-17.737z" clip-rule="evenodd"/><path fill="#303942" fill-rule="evenodd" d="m24.68 26.492-3.947-6.78-3.948 6.78h-6.301l10.28-17.668 10.282 17.668zm17.078 18.41" clip-rule="evenodd"/><path fill="#303942" d="M59.704 28.349H53.56l-1.368 4.68H49.12l4.968-15.768c.144-.528.504-.792 1.08-.792h2.928c.576 0 .936.264 1.08.792l4.968 15.768h-3.072zm-.72-2.472-1.656-5.712a69.94 69.94 0 0 1-.36-1.416h-.648l-.384 1.416-1.656 5.712zm14.598.6-3.336-1.056c-1.2-.384-2.056-.96-2.568-1.728-.512-.784-.768-1.808-.768-3.072 0-1.808.416-3 1.248-3.576.848-.576 2.328-.864 4.44-.864 2.032 0 3.768.184 5.208.552l-.192 2.136a141.65 141.65 0 0 0-4.92-.096c-1.104 0-1.84.112-2.208.336-.368.208-.552.728-.552 1.56 0 .688.128 1.176.384 1.464.272.272.76.52 1.464.744l3.192.984c1.264.4 2.144.992 2.64 1.776.512.768.768 1.784.768 3.048 0 1.824-.432 3.056-1.296 3.696-.864.624-2.392.936-4.584.936-1.824 0-3.616-.176-5.376-.528l.192-2.208c2.8.064 4.552.096 5.256.096 1.104 0 1.84-.128 2.208-.384.368-.256.552-.8.552-1.632 0-.704-.128-1.192-.384-1.464-.24-.272-.696-.512-1.368-.72m21.187-3v9.552h-2.232l-.264-1.632c-1.376 1.296-2.992 1.944-4.848 1.944-1.824 0-3.144-.688-3.96-2.064-.816-1.392-1.224-3.592-1.224-6.6 0-3.264.528-5.496 1.584-6.696 1.056-1.216 2.944-1.824 5.664-1.824 1.84 0 3.424.184 4.752.552l-.24 2.232a70.977 70.977 0 0 0-4.368-.144c-.864 0-1.536.064-2.016.192-.48.112-.904.384-1.272.816-.368.416-.624 1.024-.768 1.824-.128.784-.192 1.856-.192 3.216 0 2.224.216 3.768.648 4.632.432.848 1.208 1.272 2.328 1.272 1.072 0 2.232-.384 3.48-1.152v-6.12zm13.615 4.872h-6.144l-1.368 4.68H97.8l4.968-15.768c.144-.528.504-.792 1.08-.792h2.928c.576 0 .936.264 1.08.792l4.968 15.768h-3.072zm-.72-2.472-1.656-5.712a69.94 69.94 0 0 1-.36-1.416H105l-.384 1.416-1.656 5.712zm21.006 7.152h-3.192l-1.32-5.136c-.304-.992-.944-1.488-1.92-1.488l-2.976-.024v6.648h-2.976v-16.56c1.424-.144 3.432-.216 6.024-.216 2.096 0 3.576.352 4.44 1.056.88.688 1.32 1.952 1.32 3.792 0 1.28-.24 2.264-.72 2.952-.48.672-1.272 1.08-2.376 1.224v.12c.48.112.928.368 1.344.768.416.4.704.96.864 1.68zm-9.408-9.096h2.976c1.072-.016 1.8-.208 2.184-.576.4-.368.6-1.056.6-2.064s-.2-1.688-.6-2.04c-.384-.352-1.112-.528-2.184-.528h-2.976zm13.617 9.096v-16.56a94.724 94.724 0 0 1 6.192-.216c2.512 0 4.264.616 5.256 1.848 1.008 1.232 1.512 3.448 1.512 6.648 0 3.2-.504 5.416-1.512 6.648-.992 1.232-2.744 1.848-5.256 1.848-1.936 0-4-.072-6.192-.216m3-14.256v11.904c1.248.032 2.312.048 3.192.048 1.376 0 2.32-.424 2.832-1.272.512-.864.768-2.432.768-4.704s-.264-3.84-.792-4.704c-.512-.864-1.448-1.296-2.808-1.296-.432 0-1 .008-1.704.024zm25.162 11.832.144 2.28c-1.456.128-3.888.192-7.296.192-1.088 0-1.952-.28-2.592-.84-.624-.56-.944-1.328-.96-2.304V19.565c.016-.976.336-1.744.96-2.304.64-.56 1.504-.84 2.592-.84 3.408 0 5.84.064 7.296.192l-.144 2.304h-6.48c-.432 0-.744.104-.936.312-.176.208-.264.568-.264 1.08v2.904h6.792v2.304h-6.792v3.696c0 .512.088.872.264 1.08.192.208.504.312.936.312zm10.46-5.064h-.456l-3.696 7.488h-3.168l4.392-8.52-4.08-8.04h3.144l3.384 6.912h.504l3.384-6.912h3.168l-4.104 8.04 4.416 8.52h-3.192z"/></svg>