<svg xmlns="http://www.w3.org/2000/svg" width="117" height="26" fill="none" viewBox="0 0 117 26"><path fill="url(#a)" fill-rule="evenodd" d="M11.95 12.17 6.42 6.52 21.828 0zm5.53 5.658L0 25.252 11.95 12.17z" clip-rule="evenodd"/><path fill="#101921" d="M30.645 9.276H27.94v-1.44h6.985V9.28H32.23v8.136h-1.584zm7.773-1.439h1.54v4.14h3.893v-4.14h1.552v9.578H43.85v-3.997h-3.894v3.997h-1.54z"/><path fill="#101921" fill-rule="evenodd" d="M50.191 15.665c.282.68.7 1.142 1.255 1.386.546.243 1.294.365 2.245.364.951 0 1.701-.122 2.251-.364.55-.242.969-.706 1.255-1.39.286-.684.43-1.685.43-3.003 0-1.327-.14-2.336-.423-3.03-.282-.692-.703-1.164-1.262-1.415-.567-.251-1.318-.377-2.251-.376-.933 0-1.677.126-2.232.376-.555.254-.976.73-1.262 1.427-.286.697-.428 1.705-.428 3.022 0 1.322.14 2.323.422 3.003m5.587-.884c-.141.472-.372.792-.694.962-.321.17-.784.256-1.389.256-.616 0-1.083-.085-1.4-.256-.32-.176-.548-.497-.684-.962-.137-.465-.205-1.173-.205-2.125 0-.979.075-1.708.225-2.188.15-.48.383-.804.7-.97.317-.165.77-.247 1.36-.247.608 0 1.07.08 1.387.241.316.162.547.485.693.97.145.485.218 1.216.218 2.194 0 .945-.07 1.653-.211 2.125m9.363-6.944H61.12v9.578h1.65v-3.713c.75.018 1.398.027 1.944.027l1.716 3.686h1.675l-1.903-3.92a2.503 2.503 0 0 0 1.213-.831c.308-.39.462-1.008.462-1.856 0-1.123-.245-1.9-.737-2.328-.491-.429-1.157-.643-1.998-.643m.717 4.252c-.236.237-.57.356-.998.356l-2.092-.004V9.274h2.092c.427-.003.76.106.998.325.239.22.358.623.358 1.211-.002.615-.121 1.041-.358 1.279" clip-rule="evenodd"/><path fill="#101921" d="M73.025 17.04c-.464-.252-.818-.726-1.062-1.423-.245-.698-.367-1.705-.366-3.022 0-1.251.124-2.223.372-2.915.249-.692.613-1.172 1.093-1.441.48-.268 1.1-.402 1.863-.402.501 0 1.001.04 1.496.121.434.066.864.162 1.286.287v1.214c-.248-.05-.602-.097-1.062-.14a15.28 15.28 0 0 0-1.408-.063c-.546 0-.967.087-1.26.26-.295.175-.508.5-.64.977-.132.476-.199 1.185-.199 2.126 0 .94.062 1.65.187 2.13.124.477.33.804.62.982.29.177.717.266 1.28.267.83.008 1.66-.04 2.484-.14v1.212c-.754.227-1.694.342-2.82.345-.779 0-1.4-.125-1.864-.376m8.176-9.202h1.54v4.14h3.893v-4.14h1.552v9.578h-1.552v-3.997h-3.893v3.997H81.2z"/><path fill="#101921" fill-rule="evenodd" d="M97.442 7.837h-1.93l-2.96 9.575h1.567l.692-2.27h3.299l.705 2.273h1.595zm-.99 1.376 1.287 4.49h-2.573z" clip-rule="evenodd"/><path fill="#101921" d="M103.903 7.837h1.746v9.578h-1.746zm6.112 0h1.237l4.198 6.84v-6.84H117v9.578h-1.237l-4.199-6.835v6.835h-1.549z"/><defs><linearGradient id="a" x1="0" x2="21.828" y1="12.626" y2="12.626" gradientUnits="userSpaceOnUse"><stop stop-color="#3F9"/><stop offset="1" stop-color="#0CF"/></linearGradient></defs></svg>