<svg xmlns="http://www.w3.org/2000/svg" width="24" height="24" fill="none" viewBox="0 0 24 24"><path fill="#AAB5C4" d="M13.956 19.702H6.077c-.468 0-.91-.19-1.226-.505a1.772 1.772 0 0 1-.504-1.226V6.045c0-.47.189-.91.504-1.226a1.71 1.71 0 0 1 1.226-.505h11.927c.469 0 .91.19 1.226.505.333.333.505.766.505 1.226l-.027 7.887c0 .352.288.64.64.64.351 0 .64-.279.64-.63l.027-7.888c0-.803-.325-1.569-.893-2.137a3.024 3.024 0 0 0-2.136-.892H6.077c-.802 0-1.568.324-2.136.892a3.008 3.008 0 0 0-.893 2.137V17.97c0 .802.325 1.569.893 2.137A3.024 3.024 0 0 0 6.077 21h7.888c.352 0 .64-.288.64-.64a.66.66 0 0 0-.649-.658"/><path fill="#AAB5C4" d="m20.834 19.89-2.452-2.451a3.865 3.865 0 0 0-.649-5.174 3.869 3.869 0 0 0-5.22.216c-1.424 1.415-1.505 3.678-.216 5.22a3.837 3.837 0 0 0 5.175.648l2.452 2.452a.643.643 0 0 0 .91 0 .642.642 0 0 0 0-.91m-5.58-2.108a2.577 2.577 0 0 1-2.524-2.065 2.577 2.577 0 0 1 1.542-2.876 2.567 2.567 0 0 1 2.794 4.192 2.59 2.59 0 0 1-1.812.749m1.92-8.98c.352 0 .64-.288.64-.64a.642.642 0 0 0-.64-.64H6.898a.643.643 0 0 0-.64.64c0 .352.288.64.64.64zm-6.418 3.841a.659.659 0 0 0 .559-.325.626.626 0 0 0 0-.64.659.659 0 0 0-.56-.324H6.899a.642.642 0 0 0-.64.64c0 .352.288.64.64.64 0 .01 3.858.01 3.858.01m-3.85 2.56a.642.642 0 0 0-.64.64c0 .352.289.64.64.64h2.56a.659.659 0 0 0 .56-.324.626.626 0 0 0 0-.64.659.659 0 0 0-.56-.325h-2.56z"/></svg>